# xmcd
#
# Track frame offsets: 
#        183
#        22718
#        45753
#        60385
#        92310
#        116023
#        138138
#        151558
#        166630
#        196025
#        216903
#        231718
#        243095
#        272603
#        286790
#        310280
#
# Disc length: 4391 seconds
#
# Revision: 3
# Processed by: cddbd v1.5.2PL0 Copyright (c) Steve Scherf et al.
# Submitted via: ExactAudioCopy v0.95b4
#
DISCID=b8112510
DTITLE=Various Artist - More Dance Hits Of The '70's
DYEAR=1900
DGENRE=Dance
TTITLE0=Odyssey - Use It Up And Wear It Out
TTITLE1=Rose Royce - Car Wash
TTITLE2=Andrea True Connection - More, More, More
TTITLE3=Al Hudson And The Partners - You Can Do It
TTITLE4=The Fatback Band - ( Do The ) Spanish Hustle
TTITLE5=Shirley and Company - Shame, Shame, Shame
TTITLE6=Jackie Wilson - ( Your Love Keep Lifting Me ) Higher and Higher
TTITLE7=Retta Young - ( Sending Out An ) S.O.S 
TTITLE8=Sylvester - You Make Me Feel (Mighty Real )
TTITLE9=Issac Hayes - Theme From 'Shaft' (Vocal)
TTITLE10=Staple Singers - I'll Take You There
TTITLE11=Millie Jackson - My Man, A Sweet Man
TTITLE12=Evelyn 'Champagne' King - Shame
TTITLE13=Hues Corporation - Rock The Boat
TTITLE14=Hamilton Bohannon - Disco Stomp
TTITLE15=Blackbyrds - Walking In Rhythm
EXTD=0 ID3G: 3
EXTT0=
EXTT1=
EXTT2=
EXTT3=
EXTT4=
EXTT5=
EXTT6=
EXTT7=
EXTT8=
EXTT9=
EXTT10=
EXTT11=
EXTT12=
EXTT13=
EXTT14=
EXTT15=
PLAYORDER=
